<svg class="svg-icon" style="width: 1em; height: 1em;vertical-align: middle;fill: currentColor;overflow: hidden;" viewBox="0 0 1024 1024" version="1.1" xmlns="http://www.w3.org/2000/svg"><path d="M21.333324 1024a21.333324 21.333324 0 0 1 0-42.666649H42.666649v-170.666595c0-23.55199 19.157325-42.666649 42.666649-42.666649h85.333298c23.509324 0 42.666649 19.114659 42.666648 42.666649v170.666595h85.333298v-383.99984c0-23.55199 19.157325-42.666649 42.666649-42.666649h85.333298c23.509324 0 42.666649 19.114659 42.666649 42.666649v383.99984h85.333298v-298.666542a42.666649 42.666649 0 0 1 42.666648-42.666649h85.333298a42.666649 42.666649 0 0 1 42.666649 42.666649v298.666542h85.333298V384.000267c0-23.509324 19.114659-42.666649 42.666649-42.666649h85.333298c23.55199 0 42.666649 19.157325 42.666648 42.666649v597.333084h21.333325a21.333324 21.333324 0 0 1 0 42.666649H21.333324zM938.666276 981.333351V384.000267h-85.333298v597.333084h85.333298z m-255.999894 0v-298.666542h-85.333298v298.666542h85.333298z m-255.999893 0v-383.99984H341.333191v383.99984h85.333298z m-255.999893 0v-170.666595H85.333298v170.666595h85.333298z"  /><path d="M127.999947 576.000187c-47.061314 0-85.333298-38.271984-85.333298-85.333298s38.271984-85.333298 85.333298-85.333298c17.919993 0 35.285319 5.674664 49.749312 16.127993l129.194613-107.690621A84.778631 84.778631 0 0 1 298.666542 277.333644c0-47.061314 38.271984-85.333298 85.333298-85.333297a85.418631 85.418631 0 0 1 85.119965 91.178628l99.327958 33.10932a84.906631 84.906631 0 0 1 109.055955-30.165321l141.226608-164.735931A85.162631 85.162631 0 0 1 895.999627 0.000427c47.061314 0 85.333298 38.271984 85.333297 85.333297s-38.271984 85.333298-85.333297 85.333298c-17.919993 0-35.157319-5.631998-49.621313-15.999993l-136.49061 159.231934c10.026662 14.250661 15.445327 31.274654 15.445327 48.767979 0 47.061314-38.271984 85.333298-85.333298 85.333298a85.418631 85.418631 0 0 1-85.119964-91.263962l-99.327959-33.10932a84.949298 84.949298 0 0 1-121.301283 22.911991l-129.194612 107.690622c5.461331 11.391995 8.27733 23.850657 8.277329 36.437318 0 47.061314-38.271984 85.333298-85.333297 85.333298z m0-127.999947c-23.509324 0-42.666649 19.157325-42.666649 42.666649s19.157325 42.666649 42.666649 42.666649 42.666649-19.157325 42.666649-42.666649-19.157325-42.666649-42.666649-42.666649z m511.999786-127.999947a42.709316 42.709316 0 0 0 0 85.333298 42.709316 42.709316 0 0 0 0-85.333298z m-255.999893-85.333297c-23.509324 0-42.666649 19.157325-42.666649 42.666648s19.157325 42.666649 42.666649 42.666649 42.666649-19.157325 42.666649-42.666649-19.157325-42.666649-42.666649-42.666648zM895.999627 42.667076a42.709316 42.709316 0 0 0 0 85.333297 42.709316 42.709316 0 0 0 0-85.333297z"  /></svg>